<?xml version="1.0" encoding="UTF-8" standalone="no"?>
<!-- Created with Inkscape (http://www.inkscape.org/) -->

<svg
   xmlns:dc="http://purl.org/dc/elements/1.1/"
   xmlns:cc="http://creativecommons.org/ns#"
   xmlns:rdf="http://www.w3.org/1999/02/22-rdf-syntax-ns#"
   xmlns:svg="http://www.w3.org/2000/svg"
   xmlns="http://www.w3.org/2000/svg"
   xmlns:sodipodi="http://sodipodi.sourceforge.net/DTD/sodipodi-0.dtd"
   xmlns:inkscape="http://www.inkscape.org/namespaces/inkscape"
   width="140.00044"
   height="360.00055"
   id="svg3704"
   version="1.1"
   inkscape:version="0.48.4 r9939"
   sodipodi:docname="gravestone-4.svg">
  <defs
     id="defs3706" />
  <sodipodi:namedview
     id="base"
     pagecolor="#ffffff"
     bordercolor="#666666"
     borderopacity="1.0"
     inkscape:pageopacity="0.0"
     inkscape:pageshadow="2"
     inkscape:zoom="1"
     inkscape:cx="-12.85695"
     inkscape:cy="157.14305"
     inkscape:document-units="px"
     inkscape:current-layer="layer1"
     showgrid="false"
     fit-margin-top="0"
     fit-margin-left="0"
     fit-margin-right="0"
     fit-margin-bottom="0"
     inkscape:window-width="1366"
     inkscape:window-height="719"
     inkscape:window-x="0"
     inkscape:window-y="31"
     inkscape:window-maximized="1" />
  <metadata
     id="metadata3709">
    <rdf:RDF>
      <cc:Work
         rdf:about="">
        <dc:format>image/svg+xml</dc:format>
        <dc:type
           rdf:resource="http://purl.org/dc/dcmitype/StillImage" />
        <dc:title></dc:title>
      </cc:Work>
    </rdf:RDF>
  </metadata>
  <g
     inkscape:label="Layer 1"
     inkscape:groupmode="layer"
     id="layer1"
     transform="translate(-387.85695,-329.50465)">
    <path
       id="path3103"
       style="fill:#b3b3b3;fill-opacity:1;fill-rule:nonzero;stroke:none"
       d="m 527.74619,661.71499 c 0.046,-0.0252 0.08,-0.0444 0.08,-0.0444 l -18.8166,-11.11228 0.111,5.7e-4 -2.3097,-55.14863 0.1878,-0.0581 5.0237,-3.19634 -0.018,-0.0151 0.02,0.002 0.033,-14.28189 -8.3595,-0.0162 0.2733,-117.53372 0.1081,-0.0336 8.257,-4.19861 0.031,-14.28073 -5.7209,-0.0116 0.3173,-0.13189 c -16.635,-3.39326 -13.1312,-25.11564 -24.0964,-27.93842 l -11.7408,-0.0232 0.013,-0.0259 c 4.1953,0.007 5.2883,-3.69044 3.629,-6.36193 -1.3165,-2.11934 -4.4844,-3.76931 -7.4231,-4.06154 l 0.6119,0 c 0.5166,-0.29354 0.861,-0.81594 0.8639,-1.41075 0,-0.91937 -0.8169,-1.66419 -1.8273,-1.66677 l -0.085,0 c -0.8681,-1.79091 -1.5256,-4.9848 -1.8073,-6.7408 0.6247,-0.11379 1.1128,-0.59094 1.1157,-1.19351 0,-0.68662 -0.6134,-1.24524 -1.3676,-1.24653 l -0.3772,-0.004 0.3842,-0.11507 c 6.3756,-5.86798 13.0515,-18.02937 13.0288,-24.75723 -0.011,-2.99089 -2.8989,-5.64557 -8.8006,-6.55977 -0.1253,-0.0182 -0.2633,-0.0349 -0.407,-0.0544 l 0.1366,-0.12672 c 0.1679,-0.67628 0.033,-1.44825 -0.3757,-2.11289 -0.5522,-0.87542 -1.6138,-1.62281 -2.7993,-2.06635 l -0.078,-0.0503 c 0.2419,-0.17327 0.4055,-0.43059 0.407,-0.73445 0,-0.52112 -0.4654,-0.94783 -1.0403,-0.94783 l -0.5992,-5.7e-4 -0.1352,-0.10087 c -0.602,-1.06808 -1.1101,-3.12019 -1.0616,-4.41068 l -0.091,-0.0866 0.4056,0.002 c 0.5777,0 1.0446,-0.42541 1.0446,-0.95169 0,-0.51983 -0.4626,-0.94783 -1.0432,-0.94783 l -0.4113,0 0,-0.39957 c 6.2148,-5.99208 -1.74192,-14.59491 -3.88227,-16.79442 0,0 -0.24621,-0.25475 -0.49955,-0.26122 -0.23761,-0.002 -0.5038,0.25993 -0.5038,0.25993 -2.19304,2.23313 -10.46138,11.09328 -3.61041,17.12289 l 0.0839,0.0556 -0.84961,-0.002 c -0.57496,-0.003 -1.04746,0.42153 -1.04886,0.94524 0,0.52629 0.46824,0.95171 1.0432,0.95171 l 0.44965,0.004 -0.13376,0.16808 c 0.0242,1.2724 -0.4739,3.21847 -1.05879,4.27363 l -0.11957,0.14869 -0.63757,0 c -0.57916,-0.003 -1.04739,0.42415 -1.04879,0.94525 0,0.31292 0.17646,0.5793 0.4326,0.74999 -1.22672,0.43188 -2.34812,1.19221 -2.91168,2.0922 -0.3416,0.54309 -0.48103,1.16246 -0.43553,1.74046 0,0.0258 -0.007,0.0491 -0.007,0.075 0,0.15 0.0185,0.29613 0.0528,0.43966 -0.0911,0.0129 -0.18786,0.0245 -0.26753,0.0349 -5.9045,0.89223 -8.80486,3.53398 -8.8319,6.52615 -0.0484,6.73304 6.57771,18.93193 12.92906,24.8193 l 0.15801,0.10603 -0.16507,0 c -0.75568,-0.003 -1.37047,0.55473 -1.37194,1.24005 0,0.60388 0.48103,1.08361 1.10721,1.19739 -0.28744,1.756 -0.96205,4.94731 -1.83724,6.73693 l -0.0839,0 c -1.01182,-0.004 -1.83438,0.73964 -1.83438,1.659 -0.006,0.61809 0.36572,1.15861 0.91363,1.44825 l 0.16793,0 c -2.82488,0.38146 -5.78499,1.97841 -7.05301,4.00078 -1.6807,2.66633 -0.60053,6.36581 3.59482,6.37486 l 0.0484,0.0285 -11.77349,-0.022 c -10.97797,2.78011 -7.57674,24.51542 -24.22878,27.84508 l 0.25193,0.1319 -5.65403,-0.009 -0.0331,14.27944 8.23703,4.23352 0.10958,0.0712 -0.27039,117.49737 -8.3566,-0.0168 -0.0331,14.28097 0.0191,0 -0.0191,0.0125 5.15881,3.31105 0.0382,0.0202 -2.56594,55.08348 0.11104,0 -18.8678,11.03916 c 0,0 0.23195,0.0162 0.63897,0.0462 l -0.66742,0 -0.0639,27.78854 139.93444,0.26526 0.066,-27.7895 -0.1096,0"
       inkscape:connector-curvature="0" />
  </g>
</svg>
