<?xml version="1.0" encoding="UTF-8" standalone="no"?>
<!-- Created with Inkscape (http://www.inkscape.org/) -->

<svg
   xmlns:dc="http://purl.org/dc/elements/1.1/"
   xmlns:cc="http://creativecommons.org/ns#"
   xmlns:rdf="http://www.w3.org/1999/02/22-rdf-syntax-ns#"
   xmlns:svg="http://www.w3.org/2000/svg"
   xmlns="http://www.w3.org/2000/svg"
   xmlns:sodipodi="http://sodipodi.sourceforge.net/DTD/sodipodi-0.dtd"
   xmlns:inkscape="http://www.inkscape.org/namespaces/inkscape"
   width="139.99971"
   height="270.00021"
   id="svg3642"
   version="1.1"
   inkscape:version="0.48.4 r9939"
   sodipodi:docname="gravestone-3.svg">
  <defs
     id="defs3644" />
  <sodipodi:namedview
     id="base"
     pagecolor="#ffffff"
     bordercolor="#666666"
     borderopacity="1.0"
     inkscape:pageopacity="0.0"
     inkscape:pageshadow="2"
     inkscape:zoom="1"
     inkscape:cx="194.5713"
     inkscape:cy="42.285827"
     inkscape:document-units="px"
     inkscape:current-layer="layer1"
     showgrid="false"
     fit-margin-top="0"
     fit-margin-left="0"
     fit-margin-right="0"
     fit-margin-bottom="0"
     inkscape:window-width="1366"
     inkscape:window-height="719"
     inkscape:window-x="0"
     inkscape:window-y="31"
     inkscape:window-maximized="1" />
  <metadata
     id="metadata3647">
    <rdf:RDF>
      <cc:Work
         rdf:about="">
        <dc:format>image/svg+xml</dc:format>
        <dc:type
           rdf:resource="http://purl.org/dc/dcmitype/StillImage" />
        <dc:title></dc:title>
      </cc:Work>
    </rdf:RDF>
  </metadata>
  <g
     inkscape:label="Layer 1"
     inkscape:groupmode="layer"
     id="layer1"
     transform="translate(-180.4287,-304.64778)">
    <path
       id="path3081"
       style="fill:#b3b3b3;fill-opacity:1;fill-rule:nonzero;stroke:none"
       d="m 272.34022,574.6419 40.0429,0 0.1269,-161.81111 0.03,-0.002 c 0,-4.84273 3.52689,-8.7691 7.88839,-8.78393 l 0,-40.8336 c -0.017,0.003 -0.032,0.008 -0.052,0.002 -9.7211,0.003 -20.0916,-5.16113 -20.0916,-19.74667 0,-0.31101 0.028,-0.6146 0.042,-0.9219 l -11.2834,0 c -1.7277,-21.24613 -17.8183,-37.89761 -37.42411,-37.89391 l -2.3802,-0.003 c -19.6092,0.002 -35.6998,16.65704 -37.4274,37.90502 l -11.2817,-0.002 c 0.012,0.30914 0.042,0.60903 0.042,0.92004 0,14.58554 -10.3688,19.75222 -20.0933,19.75222 -0.015,0 -0.032,-0.003 -0.05,0 l 0,40.82986 c 4.3615,0.0166 7.8934,3.94119 7.8934,8.78391 l 0.028,0 0.1119,161.81117 38.4655,0 45.40921,0"
       inkscape:connector-curvature="0" />
  </g>
</svg>
