<?xml version="1.0" encoding="UTF-8" standalone="no"?>
<!-- Created with Inkscape (http://www.inkscape.org/) -->

<svg
   xmlns:dc="http://purl.org/dc/elements/1.1/"
   xmlns:cc="http://creativecommons.org/ns#"
   xmlns:rdf="http://www.w3.org/1999/02/22-rdf-syntax-ns#"
   xmlns:svg="http://www.w3.org/2000/svg"
   xmlns="http://www.w3.org/2000/svg"
   xmlns:sodipodi="http://sodipodi.sourceforge.net/DTD/sodipodi-0.dtd"
   xmlns:inkscape="http://www.inkscape.org/namespaces/inkscape"
   sodipodi:docname="gravestone-5.svg"
   inkscape:version="0.48.4 r9939"
   version="1.1"
   id="svg3738"
   height="450"
   width="140">
  <defs
     id="defs3740" />
  <sodipodi:namedview
     id="base"
     pagecolor="#ffffff"
     bordercolor="#666666"
     borderopacity="1.0"
     inkscape:pageopacity="0.0"
     inkscape:pageshadow="2"
     inkscape:zoom="1"
     inkscape:cx="-238.71429"
     inkscape:cy="176.14286"
     inkscape:document-units="px"
     inkscape:current-layer="svg3738"
     showgrid="false"
     fit-margin-top="0"
     fit-margin-left="0"
     fit-margin-right="0"
     fit-margin-bottom="0"
     inkscape:window-width="1366"
     inkscape:window-height="719"
     inkscape:window-x="0"
     inkscape:window-y="31"
     inkscape:window-maximized="1" />
  <metadata
     id="metadata3743">
    <rdf:RDF>
      <cc:Work
         rdf:about="">
        <dc:format>image/svg+xml</dc:format>
        <dc:type
           rdf:resource="http://purl.org/dc/dcmitype/StillImage" />
        <dc:title></dc:title>
      </cc:Work>
    </rdf:RDF>
  </metadata>
  <g
     inkscape:label="Layer 1"
     inkscape:groupmode="layer"
     id="layer1"
     transform="translate(-439.71429,-258.50503)">
    <path
       id="path3036"
       style="fill:#b3b3b3;fill-opacity:1;fill-rule:nonzero;stroke:none"
       d="m 576.23679,657.74909 -2.1731,0 0,-1.63973 c 0,-1.80658 -1.5567,-3.27399 -3.4794,-3.27399 l -3.044,0 0,-37.9239 1.1617,0 0,-3.0382 c 1.786,-0.14148 3.1885,-1.53268 3.1885,-3.24679 l 0,-3.274 c 0,-1.80841 -1.5567,-3.27399 -3.4794,-3.27399 l -2.1713,0 0,-9.82562 c -5.0726,0 -5.7258,-3.54425 -5.7258,-3.54425 0.8419,0 1.522,-0.64029 1.522,-1.43112 0,-0.79266 -0.6801,-1.43476 -1.522,-1.43476 l -0.5106,0 0,-95.92532 0.5106,0 c 0.8419,0 1.522,-0.6421 1.522,-1.43293 0,-0.79085 -0.6801,-1.43113 -1.522,-1.43113 0,0 0.6532,-3.54426 5.7258,-3.54426 l 0,-10.504 3.4737,0 0,-7.6399 -7.3885,0 11.8832,-11.18964 0,-2.72803 3.0439,0 0,-23.19549 -17.2447,0 0,-7.64355 -24.1649,0 0,-16.38085 -11.2223,0 c 0.3468,-0.80354 0.4315,-1.65604 0.2081,-2.18568 -0.578,-1.3622 -2.0307,-0.81623 -1.4508,-6.54617 0.5819,-5.73177 11.3071,-9.00575 10.7253,-10.64366 -0.5818,-1.63609 -1.4488,-8.18589 -1.4488,-8.18589 l -1.4488,-1.63609 c 0,0 -1.4507,-16.3736 -4.9301,-26.4713 -3.4775,-10.0995 0.2929,-17.73761 0.2929,-17.73761 0,0 -7.2459,-3.82178 0.287,-5.73175 7.5367,-1.91179 5.799,-7.09576 8.6965,-7.63993 2.8976,-0.54595 6.0861,-7.36784 6.0861,-7.36784 0,0 -0.3642,-0.27027 -0.919,-0.67839 0.8997,-1.94444 -0.059,-5.10415 -0.5259,-6.38655 5.4983,-4.37863 11.5111,-14.49627 7.531,-14.49627 -0.2814,0 -0.5627,-0.008 -0.842,-0.0217 -0.5761,-2.8024 -0.062,-2.37615 3.959,-7.75419 3.5121,-4.69788 5.2903,-8.93685 5.745,-10.1104 3.6778,-2.79876 7.0802,-8.5142 7.0802,-8.5142 -33.0426,-3.89071 -48.0409,25.58251 -48.0409,25.58251 0,0 -1.9574,6.34484 -1.522,-0.20316 0.4355,-6.55161 -3.2597,-6.95973 -3.4794,-9.41569 -0.2176,-2.45775 -2.1731,-4.70692 -2.1731,-4.70692 -6.088,-8.1877 -9.7832,-0.81986 -11.0855,-0.81986 -1.3043,0 -1.5239,4.09567 -2.3948,4.09567 -0.8669,0 -2.0306,2.31809 -2.0306,2.31809 -6.6659,-13.09778 -36.2291,-20.46563 -36.2291,-20.46563 0,0 -2.8957,1.91542 1.4507,6.28135 4.3502,4.36592 2.0306,9.00575 2.0306,9.00575 8.1167,7.36785 9.5636,11.45989 10.7233,20.73953 1.1599,9.27965 10.7252,10.64366 8.1167,11.7356 -2.6105,1.09192 -3.7683,7.36785 -1.1599,7.09395 2.6067,-0.27208 3.4775,0.81986 3.4775,4.91371 0,4.09386 2.9014,7.09214 2.9014,7.09214 0,0 -0.2928,3.27582 -2.6105,5.18398 -2.3196,1.91361 -2.6085,6.82369 -2.6085,6.82369 0,0 6.9548,-2.45593 6.9548,4.09384 0,6.548 -1.1578,5.72996 -2.0286,15.55377 -0.8689,9.82378 3.7702,4.90644 3.4793,11.72833 -0.289,6.82006 -7.5347,9.55171 -4.9281,15.28165 2.6105,5.72996 10.1453,5.18399 10.1453,6.82189 0,1.6361 0.5799,3.82177 -2.6086,4.63983 -2.1404,0.5514 -1.4083,5.52316 -0.6955,8.73366 l -7.4192,0 0,16.38085 -22.5043,0 0,7.64357 -17.2485,0 0,23.19548 3.0459,0 0,2.72803 11.8831,11.18962 -7.3923,0 0,7.63992 3.4794,0 0,10.50398 c 5.0708,0 5.7239,3.54427 5.7239,3.54427 -0.8381,0 -1.5201,0.64029 -1.5201,1.43113 0,0.79084 0.682,1.43293 1.5201,1.43293 l 2.2444,0 0,95.92532 -2.2444,0 c -0.8381,0 -1.5201,0.6421 -1.5201,1.43476 0,0.79083 0.682,1.43112 1.5201,1.43112 0,0 -0.6531,3.54426 -5.7239,3.54426 l 0,9.82561 -2.1713,0 c -1.9227,0 -3.4812,1.46559 -3.4812,3.27399 l 0,3.274 c 0,1.7159 1.4044,3.10713 3.1904,3.2468 l 0,3.03818 1.1578,0 0,37.92393 -3.044,0 c -1.9208,0 -3.4793,1.46739 -3.4793,3.27399 l 0,1.63972 -2.1732,0 c -1.9208,0 -3.4794,1.46562 -3.4794,3.27405 l 0,2.45596 c 0,1.8065 1.5586,3.2758 3.4794,3.2758 l 0.8708,0 0,41.75006 131.3054,0 0,-41.75006 0.8669,0 c 1.9247,0 3.4775,-1.4693 3.4775,-3.2758 l 0,-2.45596 c 0,-1.80843 -1.5528,-3.27405 -3.4775,-3.27405 z m -91.7375,-65.49622 c -5.0746,0 -5.7256,-3.54425 -5.7256,-3.54425 l 0,0 c 0.8398,0 1.52,-0.64029 1.52,-1.43112 0,-0.79266 -0.6802,-1.43476 -1.52,-1.43476 l -0.5107,0 0,-95.92532 0.5107,0 c 0.8398,0 1.52,-0.6421 1.52,-1.43293 0,-0.79085 -0.6802,-1.43113 -1.52,-1.43113 l 0,0 c 0,0 0.651,-3.54426 5.7256,-3.54426 l 0,-10.504 50.4338,0 0,10.504 c 5.0746,0 5.7277,3.54426 5.7277,3.54426 -0.8438,0 -1.522,0.64028 -1.522,1.43113 0,0.79083 0.6782,1.43293 1.522,1.43293 l 2.2445,0 0,95.92532 -2.2445,0 c -0.8438,0 -1.522,0.6421 -1.522,1.43476 0,0.79083 0.6782,1.43112 1.522,1.43112 0,0 -0.6531,3.54425 -5.7277,3.54425 l 0,9.82562 -50.4338,0 0,-9.82562"
       inkscape:connector-curvature="0" />
  </g>
</svg>
