<?xml version="1.0" encoding="utf-8"?>

<!-- The icon can be used freely in both personal and commercial projects with no attribution required, but always appreciated. 
You may NOT sub-license, resell, rent, redistribute or otherwise transfer the icon without express written permission from iconmonstr.com -->

<!DOCTYPE svg PUBLIC "-//W3C//DTD SVG 1.1//EN" "http://www.w3.org/Graphics/SVG/1.1/DTD/svg11.dtd">
<svg version="1.1" xmlns="http://www.w3.org/2000/svg" xmlns:xlink="http://www.w3.org/1999/xlink" x="0px" y="0px"
	 width="512px" height="512px" viewBox="0 0 512 512" enable-background="new 0 0 512 512" xml:space="preserve">
<path id="banknote-5-icon" opacity=".7" fill="white" d="M127.215,388.116C115.35,362.117,61.854,244.905,50,218.929c12.392-12.008,34.769-35.714,80.18-47.026
	c59.668-14.86,125.115-0.294,186.855-15.67c33.309-8.297,51.026-21.171,68.201-32.349L462,292.083
	c-13.322,10.382-34.181,28.212-74.565,38.271c-62.477,15.561-129.048,1.578-186.914,15.988
	C162.474,355.815,145.024,372.956,127.215,388.116z M83.28,225.492c11.293,24.744,40.629,89.021,54.264,118.897
	c16.691-11.38,35.262-19.539,56.317-24.783c62.102-15.464,128.62-1.469,186.915-15.987c17.577-4.378,33.034-11.045,46.949-20.277
	l-54.53-119.481c-15.368,8.379-31.688,14.671-49.502,19.107c-66.059,16.452-131.465,1.874-186.854,15.67
	C115.949,203.842,98.707,212.457,83.28,225.492z M306.032,243.005c-11.694-27.335-44.368-45.628-72.972-40.855
	c-28.597,4.771-42.322,30.795-30.613,58.144c12.345,28.857,47.802,47.313,76.968,40.034
	C305.279,293.885,317.176,269.039,306.032,243.005z M270.292,276.279l2.714,6.346l-9.496,1.585l-2.435-5.68
	c-4.723,0.392-11.419-0.186-16.859-1.776l-1.336-10.992c5.379,0.953,14.055,2.213,19.112,0.126c4.312-1.777,3.768-6.046-2.792-7.416
	c-5.583-1.239-22.716-0.642-28.268-13.612c-2.294-5.373-1.244-13.461,8.29-17.395l-2.753-6.443l9.497-1.586l2.533,5.915
	c4.186-0.415,8.65-0.387,14.066,0.249c0.371,2.081,2.017,11.119,2.017,11.119c-3.774-0.523-9.996-1.503-15.068-0.354
	c-0.091,0.021-0.181,0.042-0.269,0.064c-5.966,1.486-4.476,5.928,0.662,7.258c10.526,2.36,24.792,3.478,29.691,14.926
	C283.398,267.464,278.34,273.704,270.292,276.279z"/>
</svg>
