<svg xmlns="http://www.w3.org/2000/svg" width="512" height="512" viewBox="0 0 512 512"><path opacity=".7" fill="#fff" d="M127.215 388.116c-11.865-26-65.36-143.21-77.215-169.187 12.392-12.01 34.77-35.715 80.18-47.027 59.668-14.86 125.115-.294 186.855-15.67 33.31-8.297 51.026-21.17 68.2-32.35L462 292.084c-13.322 10.382-34.18 28.212-74.565 38.27-62.477 15.562-129.048 1.58-186.914 15.99-38.046 9.472-55.496 26.613-73.305 41.773zM83.28 225.492c11.293 24.744 40.63 89.02 54.264 118.897 16.69-11.38 35.262-19.54 56.317-24.784 62.103-15.464 128.62-1.47 186.916-15.987 17.577-4.38 33.034-11.046 46.95-20.278l-54.53-119.48c-15.37 8.378-31.69 14.67-49.503 19.106-66.06 16.452-131.465 1.874-186.854 15.67-20.89 5.204-38.133 13.82-53.56 26.854zm222.752 17.513c-11.694-27.335-44.368-45.628-72.972-40.855-28.597 4.77-42.322 30.795-30.613 58.144 12.345 28.857 47.802 47.313 76.968 40.034 25.864-6.443 37.76-31.29 26.617-57.323zm-35.74 33.274l2.714 6.345-9.496 1.585-2.435-5.68c-4.723.392-11.42-.186-16.86-1.776l-1.335-10.992c5.38.953 14.055 2.213 19.112.126 4.312-1.777 3.768-6.046-2.792-7.416-5.583-1.24-22.716-.642-28.268-13.612-2.294-5.373-1.244-13.46 8.29-17.395l-2.753-6.443 9.496-1.586 2.533 5.915c4.185-.414 8.65-.386 14.065.25.37 2.08 2.017 11.12 2.017 11.12-3.774-.524-9.996-1.504-15.068-.355-.09.02-.18.042-.27.064-5.965 1.485-4.475 5.927.663 7.257 10.526 2.36 24.792 3.478 29.69 14.926 3.8 8.85-1.257 15.09-9.305 17.666z"/></svg>