<svg xmlns="http://www.w3.org/2000/svg" width="512" height="512" viewBox="0 0 512 512"><path opacity=".7" fill="#fff" d="M256 50C142.23 50 50 142.23 50 256s92.23 206 206 206 206-92.23 206-206S369.77 50 256 50zm0 367c-88.977 0-161-72.008-161-161 0-88.98 72.008-161 161-161 88.977 0 161 72.007 161 161 0 88.977-72.008 161-161 161zm126.816-151.215c1.71.297 2.96 1.78 2.96 3.518v.093c0 1.72-1.222 3.188-2.913 3.505-37.093 6.94-124.97 21.35-134.613 21.35-13.808 0-25-11.19-25-25 0-9.83 14.79-104.674 21.618-143.08.274-1.542 1.615-2.67 3.18-2.67h.01c1.708 0 3.163 1.244 3.43 2.933l18.933 119.904 112.396 19.448z"/></svg>